<svg width="37" height="44" viewBox="0 0 37 44" fill="none" xmlns="http://www.w3.org/2000/svg">
<path d="M30.8718 5.68924C30.7218 5.68924 30.6818 5.79924 30.5818 5.78924C28.2025 5.63179 25.813 5.75261 23.4618 6.14924C19.26 6.77202 15.1749 8.01912 11.3418 9.84924C8.4736 11.2021 5.78603 12.9087 3.34179 14.9292C3.25751 14.9933 3.18989 15.0768 3.14464 15.1725C3.09939 15.2682 3.07783 15.3734 3.08179 15.4792C3.0567 17.5387 3.1368 19.598 3.32179 21.6492C3.58144 24.7461 4.54417 27.7429 6.13669 30.4115C7.72922 33.0802 9.90957 35.3503 12.5118 37.0492C14.2847 38.2414 16.1393 39.3074 18.0618 40.2392C18.1184 40.2708 18.182 40.2873 18.2468 40.2873C18.3115 40.2873 18.3752 40.2708 18.4318 40.2392C21.7056 38.7427 24.72 36.7342 27.3618 34.2892C30.294 31.4159 32.2494 27.694 32.9518 23.6492C33.3189 21.5598 33.4896 19.4405 33.4618 17.3192C33.4618 13.7692 33.4618 10.2192 33.4618 6.66924C33.4618 6.25924 33.4618 6.24924 33.8718 6.37924C34.5118 6.58924 35.1518 6.80924 35.8018 7.00924C35.8772 7.02154 35.9447 7.0631 35.9896 7.12489C36.0346 7.18668 36.0533 7.26371 36.0418 7.33924C36.0418 11.5092 36.1518 15.6792 35.9518 19.8392C35.8485 23.6722 34.8811 27.4323 33.1218 30.8392C31.4161 33.9462 29.0216 36.6212 26.1218 38.6592C23.7211 40.4023 21.1555 41.9061 18.4618 43.1492C18.3989 43.1834 18.3284 43.2013 18.2568 43.2013C18.1852 43.2013 18.1147 43.1834 18.0518 43.1492C14.6229 41.6269 11.4168 39.6454 8.52179 37.2592C5.04966 34.3442 2.58023 30.4127 1.46179 26.0192C0.78017 23.2684 0.444244 20.4432 0.461788 17.6092C0.461788 16.3292 0.461788 15.0392 0.461788 13.7592C0.453111 13.6595 0.471807 13.5593 0.515861 13.4695C0.559915 13.3796 0.627657 13.3035 0.711788 13.2492C4.29298 10.4544 8.36193 8.34873 12.7118 7.03924C17.3397 5.57439 22.195 4.96113 27.0418 5.22924C28.3263 5.30828 29.6051 5.46188 30.8718 5.68924Z" fill="#234090"/>
<path d="M35.5217 4.61795L34.3817 4.27795C32.012 3.58079 29.5685 3.1646 27.1017 3.03795C19.5622 2.604 12.0486 4.25064 5.38167 7.79795C3.74947 8.65361 2.19958 9.65786 0.75167 10.7979C0.68167 10.7979 0.62167 10.9379 0.53167 10.9079C0.44167 10.8779 0.53167 10.7379 0.53167 10.6479C0.46167 8.79795 0.46167 6.95795 0.46167 5.14795C0.46167 4.86795 0.62167 4.76795 0.81167 4.66795C6.51248 1.52112 12.9527 -0.0397295 19.4617 0.147946C24.8118 0.325403 30.0553 1.69179 34.8117 4.14795L35.4217 4.47795C35.4217 4.47795 35.4617 4.50795 35.5217 4.61795Z" fill="#F9C83E"/>
<path d="M24.3315 22.3198C24.3315 22.2598 24.3315 22.1998 24.3315 22.1298C24.3365 22.0699 24.3365 22.0097 24.3315 21.9498C24.3315 21.8798 24.3315 21.8098 24.3315 21.7398C24.3315 21.6698 24.3315 21.6298 24.3315 21.5798C24.3315 21.5298 24.3315 21.5098 24.3315 21.4698C24.3315 21.4298 24.3315 21.3998 24.3315 21.3598V21.1798C24.3371 21.1367 24.3371 21.093 24.3315 21.0498C24.3315 20.8798 24.2815 20.7098 24.2515 20.5498C24.2468 20.4799 24.2468 20.4098 24.2515 20.3398C24.2015 20.1298 24.1615 19.9198 24.1115 19.7098C23.8859 18.8237 23.5883 17.9575 23.2215 17.1198L26.2215 12.9398C25.9588 12.7319 25.6851 12.5383 25.4015 12.3598L22.5515 16.0498C21.4583 13.9311 20.0299 12.0029 18.3215 10.3398H18.1715C16.4637 11.9916 15.0262 13.9016 13.9115 15.9998L11.3815 12.4198C11.1115 12.6098 10.8315 12.7998 10.5715 12.9998L13.4115 16.9998C13.0207 17.8548 12.7029 18.7413 12.4615 19.6498C12.4615 19.6498 12.4615 19.7398 12.4615 19.7898V19.9198C12.4615 20.0198 12.4615 20.1098 12.3915 20.2098C12.3953 20.2731 12.3953 20.3366 12.3915 20.3998C12.3915 20.4798 12.3915 20.5598 12.3915 20.6498C12.3915 20.7898 12.3415 20.9198 12.3215 21.0598V21.2298V21.3498C12.3159 21.3762 12.3159 21.4035 12.3215 21.4298C12.3215 21.4298 12.3215 21.4998 12.3215 21.5398C12.3215 21.5798 12.3215 21.6398 12.3215 21.6898C12.3161 21.7564 12.3161 21.8233 12.3215 21.8898C12.3166 21.9397 12.3166 21.99 12.3215 22.0398C12.3166 22.0797 12.3166 22.12 12.3215 22.1598C12.3166 22.203 12.3166 22.2467 12.3215 22.2898V22.3698C12.3162 22.413 12.3162 22.4567 12.3215 22.4998V22.5698C12.3215 22.7398 12.3215 22.9098 12.3215 23.0898V23.1498C12.317 23.1864 12.317 23.2233 12.3215 23.2598V23.4898C12.3215 23.4898 12.3215 23.5498 12.3215 23.5798C12.3166 23.6397 12.3166 23.6999 12.3215 23.7598C12.3215 23.8298 12.3215 23.8898 12.3215 23.9498V24.2198C12.3215 24.2898 12.3215 24.3598 12.3215 24.4198C12.3161 24.4931 12.3161 24.5666 12.3215 24.6398C12.3264 24.6897 12.3264 24.74 12.3215 24.7898C12.3159 24.8664 12.3159 24.9433 12.3215 25.0198C12.3215 25.1798 12.3215 25.3298 12.3915 25.4798C12.4615 25.6298 12.3915 25.5498 12.3915 25.5898C12.3915 25.6298 12.3915 25.6698 12.3915 25.6998L12.4515 25.9998C12.4515 26.0698 12.4515 26.1398 12.4515 26.2098V26.4098V26.5598C12.4562 26.6198 12.4562 26.6799 12.4515 26.7398L12.5015 26.9198C12.4958 26.983 12.4958 27.0466 12.5015 27.1098C12.5015 27.1698 12.5015 27.2298 12.5015 27.2798L12.6215 27.6998C12.6715 27.8598 12.7115 28.0098 12.7615 28.1598C13.3034 29.839 14.0313 31.4524 14.9315 32.9698L12.8515 35.9698H12.9015C13.1915 36.0998 13.4915 36.2198 13.7915 36.3298L15.5015 33.9098C16.288 35.0711 17.182 36.1559 18.1715 37.1498H18.3215C19.3231 36.0994 20.2114 34.9463 20.9715 33.7098L22.8315 36.3298C23.1515 36.2098 23.4615 36.0798 23.7715 35.9298L21.5315 32.7698C22.3632 31.3172 23.0339 29.7781 23.5315 28.1798C23.5595 28.1047 23.5828 28.0278 23.6015 27.9498L23.8415 27.0698C23.8415 27.0098 23.8415 26.9498 23.8415 26.8898C23.8415 26.8298 23.8415 26.7798 23.8415 26.7198C23.8415 26.6598 23.8415 26.5498 23.8915 26.4698C23.9415 26.2298 23.9915 25.9898 24.0315 25.7398C24.0363 25.6699 24.0363 25.5998 24.0315 25.5298C24.0315 25.3598 24.0815 25.1898 24.1115 25.0198C24.1415 24.8498 24.1115 24.8898 24.1115 24.8198C24.1164 24.7666 24.1164 24.7131 24.1115 24.6598C24.1066 24.5966 24.1066 24.5331 24.1115 24.4698C24.1071 24.4033 24.1071 24.3364 24.1115 24.2698C24.1115 23.8598 24.1715 23.4498 24.1715 23.0498C24.1715 22.9098 24.1715 22.7698 24.1715 22.6298C24.1715 22.4898 24.3315 22.4198 24.3315 22.3198ZM17.6715 11.8998V22.1498C16.921 20.542 16.5321 18.7892 16.5321 17.0148C16.5321 15.2405 16.921 13.4877 17.6715 11.8798V11.8998ZM17.6715 35.6598C16.921 34.052 16.5321 32.2992 16.5321 30.5248C16.5321 28.7505 16.921 26.9977 17.6715 25.3898V35.6598ZM18.8315 35.6598V25.3898C19.5761 26.9993 19.9618 28.7515 19.9618 30.5248C19.9618 32.2982 19.5761 34.0504 18.8315 35.6598ZM18.8315 22.1698V11.8998C19.5761 13.5093 19.9618 15.2615 19.9618 17.0348C19.9618 18.8082 19.5761 20.5604 18.8315 22.1698Z" fill="#FDCD08"/>
<path d="M24.3315 22.3195C24.3315 22.2595 24.3315 22.1995 24.3315 22.1295C24.3365 22.0696 24.3365 22.0094 24.3315 21.9495C24.3315 21.8795 24.3315 21.8095 24.3315 21.7395C24.3315 21.6695 24.3315 21.6295 24.3315 21.5795C24.3315 21.5295 24.3315 21.5095 24.3315 21.4695C24.3315 21.4295 24.3315 21.3995 24.3315 21.3595V21.1795C24.3371 21.1364 24.3371 21.0927 24.3315 21.0495C24.3315 20.8795 24.2815 20.7095 24.2515 20.5495C24.2468 20.4796 24.2468 20.4095 24.2515 20.3395C24.2015 20.1295 24.1615 19.9195 24.1115 19.7095C23.8859 18.8234 23.5883 17.9572 23.2215 17.1195L26.2215 12.9395C25.9588 12.7316 25.6851 12.538 25.4015 12.3595L22.5515 16.0495C21.4583 13.9308 20.0299 12.0026 18.3215 10.3395L18.2515 10.2695L18.1715 10.3395C16.4637 11.9913 15.0262 13.9013 13.9115 15.9995L11.3815 12.4195L10.5715 12.9995L13.4115 16.9995C13.0207 17.8545 12.7029 18.741 12.4615 19.6495C12.4615 19.6495 12.4615 19.7395 12.4615 19.7895V19.9195C12.4615 20.0195 12.4615 20.1095 12.3915 20.2095C12.3953 20.2728 12.3953 20.3363 12.3915 20.3995C12.3915 20.4795 12.3915 20.5595 12.3915 20.6495C12.3915 20.7895 12.3415 20.9195 12.3215 21.0595V21.2295V21.3495C12.3159 21.3759 12.3159 21.4032 12.3215 21.4295C12.3215 21.4295 12.3215 21.4995 12.3215 21.5395C12.3215 21.5795 12.3215 21.6395 12.3215 21.6895C12.3161 21.7561 12.3161 21.823 12.3215 21.8895C12.3166 21.9394 12.3166 21.9897 12.3215 22.0395C12.3166 22.0794 12.3166 22.1197 12.3215 22.1595C12.3166 22.2027 12.3166 22.2463 12.3215 22.2895V22.3695C12.3162 22.4127 12.3162 22.4564 12.3215 22.4995V22.5695C12.3215 22.7395 12.3215 22.9095 12.3215 23.0895V23.1495C12.317 23.1861 12.317 23.223 12.3215 23.2595V23.4895C12.3215 23.4895 12.3215 23.5495 12.3215 23.5795C12.3166 23.6394 12.3166 23.6996 12.3215 23.7595C12.3215 23.8295 12.3215 23.8895 12.3215 23.9495V24.2195C12.3215 24.2895 12.3215 24.3595 12.3215 24.4195C12.3161 24.4928 12.3161 24.5663 12.3215 24.6395C12.3264 24.6894 12.3264 24.7396 12.3215 24.7895C12.3159 24.8661 12.3159 24.943 12.3215 25.0195C12.3215 25.1795 12.3215 25.3295 12.3915 25.4795C12.4615 25.6295 12.3915 25.5495 12.3915 25.5895C12.3915 25.6295 12.3915 25.6695 12.3915 25.6995L12.4515 25.9995C12.4515 26.0695 12.4515 26.1395 12.4515 26.2095V26.4095V26.5595C12.4562 26.6194 12.4562 26.6796 12.4515 26.7395L12.5015 26.9195C12.4958 26.9827 12.4958 27.0463 12.5015 27.1095C12.5015 27.1695 12.5015 27.2295 12.5015 27.2795L12.6215 27.6995C12.6715 27.8595 12.7115 28.0095 12.7615 28.1595C13.3034 29.8387 14.0313 31.4521 14.9315 32.9695L12.8515 35.9695H12.9015C13.1915 36.0995 13.4915 36.2195 13.7915 36.3295L15.5015 33.9095C16.288 35.0708 17.182 36.1556 18.1715 37.1495L18.2515 37.2295L18.3215 37.1495C19.3231 36.099 20.2114 34.946 20.9715 33.7095L22.8315 36.3295C23.1515 36.2095 23.4615 36.0795 23.7715 35.9295L21.5315 32.7695C22.3632 31.3169 23.0339 29.7778 23.5315 28.1795C23.5595 28.1043 23.5828 28.0275 23.6015 27.9495L23.8415 27.0695C23.8415 27.0095 23.8415 26.9495 23.8415 26.8895C23.8415 26.8295 23.8415 26.7795 23.8415 26.7195C23.8415 26.6595 23.8415 26.5495 23.8915 26.4695C23.9415 26.2295 23.9915 25.9895 24.0315 25.7395C24.0363 25.6696 24.0363 25.5995 24.0315 25.5295C24.0315 25.3595 24.0815 25.1895 24.1115 25.0195C24.1415 24.8495 24.1115 24.8895 24.1115 24.8195C24.1164 24.7663 24.1164 24.7128 24.1115 24.6595C24.1066 24.5963 24.1066 24.5328 24.1115 24.4695C24.1071 24.4029 24.1071 24.3361 24.1115 24.2695C24.1115 23.8595 24.1715 23.4495 24.1715 23.0495C24.1715 22.9095 24.1715 22.7695 24.1715 22.6295C24.1715 22.4895 24.3315 22.4195 24.3315 22.3195ZM17.6715 11.8995V22.1495C16.921 20.5417 16.5321 18.7889 16.5321 17.0145C16.5321 15.2402 16.921 13.4874 17.6715 11.8795V11.8995ZM17.6715 35.6595C16.921 34.0517 16.5321 32.2989 16.5321 30.5245C16.5321 28.7502 16.921 26.9974 17.6715 25.3895V35.6595ZM18.8315 35.6595V25.3895C19.5761 26.999 19.9618 28.7512 19.9618 30.5245C19.9618 32.2979 19.5761 34.0501 18.8315 35.6595ZM18.8315 22.1695V11.8995C19.5761 13.509 19.9618 15.2612 19.9618 17.0345C19.9618 18.8079 19.5761 20.5601 18.8315 22.1695Z" fill="#F9C83E"/>
<path d="M24.3517 23.0297C24.3517 23.4297 24.3517 23.8397 24.2917 24.2497C24.2872 24.3163 24.2872 24.3831 24.2917 24.4497C24.2868 24.5129 24.2868 24.5764 24.2917 24.6397C24.2965 24.6929 24.2965 24.7465 24.2917 24.7997C24.2917 24.8697 24.2917 24.9297 24.2917 24.9997C24.2917 25.0697 24.2917 25.3397 24.2117 25.5097C24.2164 25.5796 24.2164 25.6498 24.2117 25.7197C24.2117 25.9697 24.1217 26.2097 24.0717 26.4497C24.0717 26.5297 24.0717 26.6197 24.0217 26.6997C23.9717 26.7797 24.0217 26.8097 24.0217 26.8697C24.0217 26.9297 24.0217 26.9897 24.0217 27.0497L23.7817 27.9297C23.763 28.0077 23.7396 28.0845 23.7117 28.1597C23.0126 27.726 22.4378 27.1184 22.0435 26.3963C21.6491 25.6743 21.4487 24.8623 21.4617 24.0397C21.4032 23.1488 21.6081 22.2604 22.0508 21.4851C22.4936 20.7099 23.1547 20.082 23.9517 19.6797C24.0017 19.8897 24.0417 20.0997 24.0917 20.3097C24.0869 20.3796 24.0869 20.4498 24.0917 20.5197C24.0917 20.6797 24.1517 20.8497 24.1717 21.0197C24.1772 21.0628 24.1772 21.1065 24.1717 21.1497V21.3297C24.1717 21.3297 24.1717 21.3997 24.1717 21.4397C24.1717 21.4797 24.1717 21.5097 24.1717 21.5497C24.1717 21.5897 24.1717 21.6497 24.1717 21.7097C24.1717 21.7697 24.1717 21.8497 24.1717 21.9197C24.1766 21.9796 24.1766 22.0398 24.1717 22.0997C24.1717 22.1697 24.1717 22.2297 24.1717 22.2897C24.1717 22.3497 24.1717 22.4797 24.1717 22.5797C24.1717 22.6797 24.3517 22.8897 24.3517 23.0297Z" fill="#234090"/>
<path d="M15.0715 24.037C15.1107 24.8578 14.9359 25.6746 14.5643 26.4074C14.1926 27.1402 13.6369 27.7638 12.9515 28.217C12.9015 28.067 12.8615 27.917 12.8115 27.757C12.7615 27.597 12.6315 27.127 12.5515 26.757C12.5562 26.6971 12.5562 26.6369 12.5515 26.577V26.427V26.227C12.5515 26.157 12.5515 26.087 12.5515 26.017L12.4915 25.717C12.4915 25.717 12.4915 25.647 12.4915 25.607C12.4915 25.567 12.4915 25.537 12.4915 25.497C12.4915 25.457 12.4415 25.197 12.4215 25.037C12.4159 24.9605 12.4159 24.8836 12.4215 24.807C12.4264 24.7572 12.4264 24.7069 12.4215 24.657C12.4161 24.5838 12.4161 24.5103 12.4215 24.437C12.4215 24.377 12.4215 24.307 12.4215 24.237V23.967C12.4215 23.907 12.4215 23.847 12.4215 23.777C12.4165 23.7171 12.4165 23.6569 12.4215 23.597C12.4215 23.597 12.4215 23.537 12.4215 23.507V23.277C12.417 23.2405 12.417 23.2036 12.4215 23.167V23.147C12.4215 22.967 12.4215 22.797 12.4215 22.627V22.557C12.4162 22.5139 12.4162 22.4702 12.4215 22.427V22.347C12.4165 22.3038 12.4165 22.2602 12.4215 22.217C12.4166 22.1772 12.4166 22.1369 12.4215 22.097C12.4165 22.0472 12.4165 21.9969 12.4215 21.947C12.4161 21.8805 12.4161 21.8136 12.4215 21.747C12.4215 21.697 12.4215 21.647 12.4215 21.597C12.4215 21.547 12.4215 21.527 12.4215 21.487C12.4158 21.4607 12.4158 21.4334 12.4215 21.407V21.287V21.117C12.4215 20.977 12.4215 20.847 12.4915 20.707C12.4915 20.617 12.4915 20.537 12.4915 20.457C12.4952 20.3938 12.4952 20.3303 12.4915 20.267C12.4915 20.167 12.4915 20.077 12.5615 19.977V19.847C12.5615 19.797 12.5615 19.747 12.5615 19.707C13.3615 20.0992 14.0272 20.72 14.474 21.4909C14.9208 22.2617 15.1288 23.1479 15.0715 24.037Z" fill="#234090"/>
<path d="M19.4018 23.9275C19.3959 24.1654 19.32 24.3964 19.1835 24.5914C19.047 24.7864 18.856 24.9368 18.6344 25.0238C18.4129 25.1108 18.1706 25.1305 17.9379 25.0805C17.7052 25.0305 17.4924 24.9129 17.3262 24.7426C17.1599 24.5722 17.0476 24.3566 17.0033 24.1227C16.959 23.8889 16.9847 23.6471 17.0771 23.4278C17.1695 23.2084 17.3245 23.0212 17.5228 22.8895C17.7211 22.7578 17.9538 22.6876 18.1918 22.6875C18.5163 22.6928 18.8255 22.826 19.0522 23.0583C19.2788 23.2906 19.4045 23.603 19.4018 23.9275Z" fill="#234090"/>
</svg>
