<svg width="64" height="64" viewBox="0 0 64 64" fill="none" xmlns="http://www.w3.org/2000/svg">
<path fill-rule="evenodd" clip-rule="evenodd" d="M10.6667 13.3334V50.6667C10.6667 55.0851 14.2485 58.6667 18.6667 58.6667H45.3334C49.7518 58.6667 53.3334 55.0851 53.3334 50.6667V24C53.3334 19.5818 49.7518 16 45.3334 16H13.3334C11.8607 16 10.6667 14.8061 10.6667 13.3334ZM19.3334 32C19.3334 30.8955 20.2289 30 21.3334 30H42.6667C43.7713 30 44.6667 30.8955 44.6667 32C44.6667 33.1046 43.7713 34 42.6667 34H21.3334C20.2289 34 19.3334 33.1046 19.3334 32ZM19.3334 41.3334C19.3334 40.2288 20.2289 39.3334 21.3334 39.3334H36.0001C37.1046 39.3334 38.0001 40.2288 38.0001 41.3334C38.0001 42.4379 37.1046 43.3334 36.0001 43.3334H21.3334C20.2289 43.3334 19.3334 42.4379 19.3334 41.3334Z" fill="url(#paint0_linear_103_434)"/>
<path d="M11.7568 10.8989C12.6861 11.3157 13.3334 12.2489 13.3334 13.3333H45.3334C46.2542 13.3333 47.1478 13.45 48.0001 13.6694V11.4828C48.0001 8.23717 45.1254 5.74405 41.9126 6.20304L13.119 10.3164C12.6057 10.3897 12.1406 10.5966 11.7568 10.8989Z" fill="url(#paint1_linear_103_434)"/>
<defs>
<linearGradient id="paint0_linear_103_434" x1="32.0001" y1="13.3334" x2="32.0001" y2="58.6667" gradientUnits="userSpaceOnUse">
<stop stop-color="#003399"/>
<stop offset="1" stop-color="#6297FF"/>
</linearGradient>
<linearGradient id="paint1_linear_103_434" x1="29.8784" y1="6.14844" x2="29.8784" y2="13.6694" gradientUnits="userSpaceOnUse">
<stop stop-color="#003399"/>
<stop offset="1" stop-color="#6297FF"/>
</linearGradient>
</defs>
</svg>
