<svg width="54" height="54" viewBox="0 0 54 54" fill="none" xmlns="http://www.w3.org/2000/svg">
<path d="M26.0528 43.3771C26.6834 43.9257 27.1407 44.6378 27.3713 45.4301C27.602 46.2225 27.5965 47.0624 27.3556 47.8518C27.0813 48.8536 26.9853 49.9022 26.7111 50.904C25.9157 53.856 22.9125 54.9113 20.3893 53.128C16.8939 50.6571 14.3112 47.1528 13.0254 43.1366C12.3389 40.9219 11.7668 38.675 11.3113 36.4044C11.1828 35.8154 10.8912 35.2719 10.4682 34.8328C10.0451 34.3936 9.50681 34.0756 8.9115 33.9133C7.90334 33.6664 6.92091 33.3288 5.9769 32.9048C1.3076 30.6874 -0.879633 25.7585 0.327117 20.7294C0.929568 18.4505 2.28242 16.4268 4.17841 14.9684C6.07441 13.51 8.40898 12.6973 10.8245 12.6548C12.4458 12.5612 14.0713 12.5612 15.6926 12.6548C16.4368 12.7143 17.1414 13.0066 17.7011 13.488C18.2609 13.9695 18.6459 14.6143 18.7986 15.3263L22.7137 34.6947L22.6246 34.6346C22.9262 37.9873 23.653 40.9994 26.0528 43.3771Z" fill="url(#paint0_linear_107_2025)"/>
<path d="M53.9998 41.467C53.9998 43.257 53.4993 44.8064 51.984 45.9151C51.1724 46.6095 50.1441 47.0169 49.0653 47.0715C47.9865 47.126 46.9204 46.8245 46.0394 46.2156C42.3643 44.005 38.7235 41.7542 35.0072 39.617C32.9469 38.4315 30.7995 37.3957 28.5826 36.5181C27.8322 36.2301 27.1675 35.764 26.649 35.1621C26.1306 34.5603 25.7747 33.8417 25.6138 33.0719L22.2746 16.5486C22.0558 15.4775 22.2323 14.3656 22.7729 13.4088C23.3136 12.4521 24.1837 11.712 25.2298 11.3192C26.4754 10.8592 27.6933 10.3307 28.8775 9.73631C33.7319 7.31192 38.4629 4.64042 43.2625 2.10249C44.481 1.4322 45.7378 0.830136 47.0267 0.29923C47.7434 0.0470198 48.5085 -0.0475403 49.2671 0.0223353C50.0257 0.0922109 50.7591 0.324789 51.4145 0.703381C52.0699 1.08197 52.6312 1.59719 53.058 2.21206C53.4849 2.82694 53.7667 3.52622 53.8832 4.25973C53.9391 4.68717 53.9643 5.11788 53.9587 5.54873C53.9861 17.5215 53.9998 29.4943 53.9998 41.467Z" fill="url(#paint1_linear_107_2025)"/>
<defs>
<linearGradient id="paint0_linear_107_2025" x1="13.7702" y1="12.5846" x2="13.7702" y2="54" gradientUnits="userSpaceOnUse">
<stop stop-color="#003399"/>
<stop offset="1" stop-color="#6297FF"/>
</linearGradient>
<linearGradient id="paint1_linear_107_2025" x1="38.0915" y1="0" x2="38.0915" y2="47.0778" gradientUnits="userSpaceOnUse">
<stop stop-color="#003399"/>
<stop offset="1" stop-color="#6297FF"/>
</linearGradient>
</defs>
</svg>
