<svg width="64" height="64" viewBox="0 0 64 64" fill="none" xmlns="http://www.w3.org/2000/svg">
<path d="M5.33325 16.5615C5.33325 11.2685 5.33325 8.62199 7.09061 6.97769C8.84797 5.33337 11.6764 5.33337 17.3333 5.33337C22.9901 5.33337 25.8185 5.33337 27.5759 6.97769C29.3333 8.62199 29.3333 11.2685 29.3333 16.5615V47.4387C29.3333 52.7315 29.3333 55.3782 27.5759 57.0224C25.8185 58.6667 22.9901 58.6667 17.3333 58.6667C11.6764 58.6667 8.84797 58.6667 7.09061 57.0224C5.33325 55.3782 5.33325 52.7315 5.33325 47.4387V16.5615Z" fill="url(#paint0_linear_75_2278)"/>
<path d="M34.6667 41.0667C34.6667 35.5355 34.6667 32.7699 36.4241 31.0518C38.1814 29.3334 41.0099 29.3334 46.6667 29.3334C52.3235 29.3334 55.1521 29.3334 56.9094 31.0518C58.6667 32.7699 58.6667 35.5355 58.6667 41.0667V46.9334C58.6667 52.4646 58.6667 55.2302 56.9094 56.9483C55.1521 58.6667 52.3235 58.6667 46.6667 58.6667C41.0099 58.6667 38.1814 58.6667 36.4241 56.9483C34.6667 55.2302 34.6667 52.4646 34.6667 46.9334V41.0667Z" fill="url(#paint1_linear_75_2278)"/>
<path d="M34.6667 14.6667C34.6667 11.7675 34.6667 10.3179 35.1235 9.17447C35.7323 7.64983 36.9003 6.43852 38.3707 5.807C39.4731 5.33337 40.871 5.33337 43.6667 5.33337H49.6667C52.4625 5.33337 53.8603 5.33337 54.9627 5.807C56.4331 6.43852 57.6011 7.64983 58.2099 9.17447C58.6667 10.3179 58.6667 11.7675 58.6667 14.6667C58.6667 17.5659 58.6667 19.0155 58.2099 20.1589C57.6011 21.6836 56.4331 22.8949 54.9627 23.5264C53.8603 24 52.4625 24 49.6667 24H43.6667C40.871 24 39.4731 24 38.3707 23.5264C36.9003 22.8949 35.7323 21.6836 35.1235 20.1589C34.6667 19.0155 34.6667 17.5659 34.6667 14.6667Z" fill="url(#paint2_linear_75_2278)"/>
<defs>
<linearGradient id="paint0_linear_75_2278" x1="17.3333" y1="5.33337" x2="17.3333" y2="58.6667" gradientUnits="userSpaceOnUse">
<stop stop-color="#003399"/>
<stop offset="1" stop-color="#6297FF"/>
</linearGradient>
<linearGradient id="paint1_linear_75_2278" x1="46.6667" y1="29.3334" x2="46.6667" y2="58.6667" gradientUnits="userSpaceOnUse">
<stop stop-color="#003399"/>
<stop offset="1" stop-color="#6297FF"/>
</linearGradient>
<linearGradient id="paint2_linear_75_2278" x1="46.6667" y1="5.33337" x2="46.6667" y2="24" gradientUnits="userSpaceOnUse">
<stop stop-color="#003399"/>
<stop offset="1" stop-color="#6297FF"/>
</linearGradient>
</defs>
</svg>
